<svg xmlns="http://www.w3.org/2000/svg" fill="none" viewBox="0 0 34 60" height="60" width="34">
<path fill="#9C9B94" d="M15.4441 13.1128H10.8527C8.31693 13.1128 6.26127 15.1685 6.26127 17.7043C6.26127 20.2401 8.31693 22.2957 10.8527 22.2957H15.4441V13.1128ZM15.4441 10H18.557H23.1484C27.4035 10 30.8525 13.4493 30.8525 17.7043C30.8525 20.2152 29.6516 22.4456 27.7923 23.8521C29.6516 25.2587 30.8525 27.4891 30.8525 30C30.8525 34.255 27.4035 37.7043 23.1484 37.7043C21.428 37.7043 19.8393 37.1404 18.557 36.1873V37.7043V42.2957C18.557 46.5507 15.1076 50 10.8527 50C6.59774 50 3.14844 46.5507 3.14844 42.2957C3.14844 39.7846 4.34962 37.5544 6.20873 36.1478C4.34962 34.7413 3.14844 32.5109 3.14844 30C3.14844 27.4891 4.34965 25.2587 6.20879 23.8522C4.34965 22.4456 3.14844 20.2152 3.14844 17.7043C3.14844 13.4493 6.59774 10 10.8527 10H15.4441ZM18.557 13.1128V22.2957H23.1484C25.6843 22.2957 27.7397 20.2401 27.7397 17.7043C27.7397 15.1685 25.6843 13.1128 23.1484 13.1128H18.557ZM10.8527 34.5914H15.4441V30.0118V30V29.9882V25.4086H10.8527C8.31693 25.4086 6.26127 27.4642 6.26127 30C6.26127 32.5297 8.30709 34.5816 10.8345 34.5914L10.8527 34.5914ZM6.26127 42.2957C6.26127 39.7659 8.30709 37.7141 10.8345 37.7043L10.8527 37.7043H15.4441V42.2957C15.4441 44.8314 13.3885 46.8872 10.8527 46.8872C8.31693 46.8872 6.26127 44.8314 6.26127 42.2957ZM18.557 29.9909C18.5619 27.4593 20.6157 25.4086 23.1484 25.4086C25.6843 25.4086 27.7397 27.4642 27.7397 30C27.7397 32.5358 25.6843 34.5914 23.1484 34.5914C20.6157 34.5914 18.5619 32.5407 18.557 30.0092V29.9909Z" clip-rule="evenodd" fill-rule="evenodd"></path>
</svg>
