<svg xmlns="http://www.w3.org/2000/svg" fill="none" viewBox="0 0 56 60" height="60" width="56">
<path fill="#9C9B94" d="M12.8053 50.9646C12.6981 53.7862 10.448 56.0006 7.66213 56.0006C4.73339 56.0006 2.55469 53.6433 2.55469 50.7503C2.55469 47.8573 4.91197 45.5 7.805 45.5C9.09079 45.5 10.3766 46.0715 11.4481 47.0715L10.6266 48.1073C9.80511 47.393 8.80506 46.8929 7.805 46.8929C5.69773 46.8929 3.94763 48.6073 3.94763 50.7503C3.94763 52.929 5.59058 54.6077 7.66213 54.6077C9.51938 54.6077 10.9838 53.2505 11.3052 51.4646H7.05495V50.2146H12.8053V50.9646Z"></path>
<path fill="#9C9B94" d="M17.6662 50.2518H16.8805C16.0233 50.2518 15.309 50.9661 15.309 51.8233V55.8949H13.916V48.8945H15.0589V49.466C15.4518 49.0731 16.0233 48.8945 16.7019 48.8945H18.202L17.6662 50.2518Z"></path>
<path fill="#9C9B94" d="M25.3039 55.8966H24.0896V55.0037C23.161 55.8966 21.7323 56.3252 20.2679 55.6823C19.1964 55.218 18.375 54.218 18.1607 53.0393C17.7321 50.7892 19.4822 48.7891 21.6966 48.7891C22.6252 48.7891 23.4824 49.1819 24.0896 49.7891V48.8962H25.3039V55.8966ZM23.8753 52.9322C24.1967 51.5035 23.1253 50.2177 21.7323 50.2177C20.518 50.2177 19.5536 51.2178 19.5536 52.3964C19.5536 53.7536 20.7323 54.7894 22.1252 54.5751C22.9467 54.4323 23.661 53.7536 23.8753 52.9322Z"></path>
<path fill="#9C9B94" d="M28.0896 48.5395V48.9324H30.3041V50.1467H28.0896V55.8971H26.7324V48.5752C26.7324 47.0394 27.8396 46.1465 29.2326 46.1465H30.9112L30.3398 47.468H29.2326C28.5897 47.4323 28.0896 47.9323 28.0896 48.5395Z"></path>
<path fill="#9C9B94" d="M37.7409 55.8966H36.5622V55.0037C35.6336 55.8966 34.205 56.3252 32.7406 55.6823C31.6691 55.218 30.8476 54.218 30.6333 53.0393C30.2047 50.7892 31.9548 48.7891 34.1693 48.7891C35.0979 48.7891 35.9551 49.1819 36.5622 49.7891V48.8962H37.7766V55.8966H37.7409ZM36.3122 52.9322C36.6337 51.5035 35.5622 50.2177 34.1693 50.2177C32.9549 50.2177 31.9906 51.2178 31.9906 52.3964C31.9906 53.7536 33.1692 54.7894 34.5621 54.5751C35.4193 54.4323 36.0979 53.7536 36.3122 52.9322Z"></path>
<path fill="#9C9B94" d="M45.2102 51.7892V55.8966H43.8172V51.7535C43.8172 50.8963 43.1029 50.182 42.2457 50.182C41.3528 50.182 40.6742 50.8963 40.6742 51.7535V55.8966H39.2812V48.8962H40.4242V49.5034C40.9242 49.0391 41.6028 48.7891 42.2814 48.7891C43.9244 48.8248 45.2102 50.1463 45.2102 51.7892Z"></path>
<path fill="#9C9B94" d="M53.4108 55.8966H52.2322V55.0037C51.3035 55.8966 49.8749 56.3252 48.4105 55.6823C47.339 55.218 46.5175 54.218 46.3033 53.0393C45.8747 50.7892 47.6248 48.7891 49.8392 48.7891C50.7678 48.7891 51.625 49.1819 52.2322 49.7891V48.8962H53.4465V55.8966H53.4108ZM51.9822 52.9322C52.3036 51.5035 51.2321 50.2177 49.8392 50.2177C48.6248 50.2177 47.6605 51.2178 47.6605 52.3964C47.6605 53.7536 48.8391 54.7894 50.2321 54.5751C51.0892 54.4323 51.7679 53.7536 51.9822 52.9322Z"></path>
<path fill="#9C9B94" d="M46.445 21.8225C46.3735 21.1439 46.2664 20.3581 46.0521 19.5009C45.8378 18.6437 45.4806 17.7151 45.0163 16.715C44.5163 15.7507 43.9091 14.7149 43.0876 13.7506C42.7662 13.3577 42.409 13.0005 42.0519 12.6076C42.6233 10.3575 41.3732 8.39312 41.3732 8.39312C39.1945 8.25025 37.8373 9.07173 37.3373 9.42889C37.2659 9.39317 37.1587 9.35746 37.0873 9.32174C36.7301 9.17887 36.3372 9.03601 35.9444 8.89314C35.5515 8.786 35.1586 8.64313 34.7657 8.5717C34.3728 8.46455 33.9442 8.39312 33.5156 8.32168C33.4442 8.32168 33.3728 8.28597 33.3013 8.28597C32.3727 5.28579 29.6583 4 29.6583 4C26.5509 6.00012 25.9438 8.67885 25.9438 8.67885C25.9438 8.67885 25.9438 8.75028 25.9081 8.82171C25.7295 8.85743 25.5866 8.92886 25.408 8.96458C25.1937 9.03601 24.9437 9.10744 24.7294 9.21459C24.5151 9.32174 24.2651 9.39317 24.0508 9.50032C23.5865 9.71462 23.1579 9.92892 22.6936 10.1789C22.265 10.4289 21.8364 10.679 21.4435 10.9647C21.3721 10.929 21.3364 10.8933 21.3364 10.8933C17.1575 9.28602 13.443 11.2147 13.443 11.2147C13.1216 15.6793 15.1217 18.4651 15.5146 18.9652C15.4074 19.2509 15.336 19.5009 15.2289 19.7866C14.9074 20.7867 14.6931 21.8225 14.5502 22.894C14.5145 23.0368 14.5145 23.2154 14.4788 23.3583C10.6214 25.2512 9.47852 29.18 9.47852 29.18C12.693 32.8946 16.4789 33.1089 16.4789 33.1089C16.9432 33.966 17.5147 34.7875 18.1219 35.5376C18.3719 35.859 18.6576 36.1447 18.9434 36.4662C17.7647 39.8235 19.1219 42.6451 19.1219 42.6451C22.7293 42.788 25.0866 41.0736 25.5866 40.6807C25.9438 40.7879 26.3009 40.895 26.6581 41.0022C27.7653 41.2879 28.9082 41.4665 30.0154 41.5022C30.3012 41.5022 30.5869 41.5022 30.8726 41.5022H31.0155H31.1226H31.3012H31.4798C33.1585 43.9309 36.1587 44.2524 36.1587 44.2524C38.2659 42.0022 38.4088 39.8235 38.4088 39.3235C38.4088 39.3235 38.4088 39.3235 38.4088 39.2878C38.4088 39.2521 38.4088 39.2164 38.4088 39.2164C38.4088 39.1806 38.4088 39.1449 38.4088 39.1092C38.8374 38.7878 39.266 38.4663 39.6946 38.1091C40.5518 37.3591 41.2661 36.4662 41.909 35.5376C41.9804 35.4661 42.0161 35.359 42.0876 35.2875C44.4806 35.4304 46.1592 33.7875 46.1592 33.7875C45.7664 31.2873 44.3377 30.073 44.052 29.8587C44.052 29.8587 44.052 29.8587 44.0163 29.8229L43.9805 29.7872L43.9448 29.7515C43.9448 29.6086 43.9805 29.4658 43.9805 29.2872C44.0163 29.0015 44.0163 28.7515 44.0163 28.4657V28.2514V28.1443V28.1086C44.0163 28.0371 44.0163 28.0728 44.0163 28.0371V27.8585V27.6442C44.0163 27.5728 44.0163 27.5014 44.0163 27.4299C44.0163 27.3585 44.0163 27.2871 43.9805 27.2156L43.9448 27.0014L43.9091 26.7871C43.8734 26.5013 43.802 26.2513 43.7662 25.9656C43.5162 24.8941 43.0876 23.8583 42.5519 22.9654C41.9804 22.0368 41.3018 21.251 40.5161 20.5367C39.7303 19.8581 38.8731 19.2866 37.9445 18.8937C37.0159 18.4651 36.0872 18.2151 35.1229 18.108C34.6586 18.0365 34.1585 18.0365 33.6942 18.0365H33.5156H33.4799H33.4085H33.3371H33.1585C33.087 18.0365 33.0156 18.0365 32.9799 18.0365C32.7299 18.0723 32.4799 18.108 32.2656 18.1437C31.3012 18.3223 30.4083 18.6794 29.6226 19.1437C28.8368 19.6081 28.1582 20.2152 27.5867 20.8938C27.0153 21.5725 26.5867 22.2868 26.3009 23.0725C26.0152 23.8226 25.8366 24.6441 25.8009 25.3941C25.8009 25.5727 25.8009 25.787 25.8009 25.9656C25.8009 26.0013 25.8009 26.0727 25.8009 26.1084V26.2513C25.8009 26.3585 25.8009 26.4299 25.8366 26.537C25.8723 26.9299 25.9438 27.2871 26.0509 27.6442C26.2652 28.3586 26.5867 29.0015 27.0153 29.5729C27.4439 30.1444 27.9082 30.573 28.4439 30.9302C28.9797 31.2873 29.5154 31.5373 30.0869 31.7159C30.6583 31.8945 31.1941 31.9659 31.6941 31.9302C31.7655 31.9302 31.837 31.9302 31.8727 31.9302C31.9084 31.9302 31.9441 31.9302 31.9798 31.9302C32.0156 31.9302 32.0513 31.9302 32.087 31.9302C32.1584 31.9302 32.1941 31.9302 32.2656 31.9302H32.3013H32.337C32.3727 31.9302 32.4084 31.9302 32.4442 31.9302C32.5156 31.9302 32.587 31.8945 32.6227 31.8945C32.6942 31.8945 32.7299 31.8588 32.8013 31.8588C32.9085 31.8231 33.0513 31.7873 33.1585 31.7516C33.3728 31.6802 33.5871 31.573 33.8014 31.5016C34.0157 31.3945 34.1943 31.2873 34.3371 31.1802C34.3728 31.1444 34.4443 31.1087 34.48 31.073C34.6586 30.9302 34.6943 30.6801 34.5514 30.5016C34.4086 30.3587 34.1943 30.323 34.0157 30.3944C33.98 30.4301 33.9442 30.4301 33.8728 30.4658C33.7299 30.5373 33.5514 30.6087 33.4085 30.6444C33.2299 30.6801 33.0513 30.7516 32.8727 30.7873C32.7656 30.7873 32.6942 30.823 32.587 30.823C32.5513 30.823 32.4799 30.823 32.4442 30.823C32.4084 30.823 32.337 30.823 32.3013 30.823C32.2656 30.823 32.1941 30.823 32.1584 30.823C32.087 30.823 32.0513 30.823 31.9798 30.823H31.9441H31.9084C31.8727 30.823 31.8727 30.823 31.837 30.823C31.8013 30.823 31.7298 30.823 31.6941 30.7873C31.3012 30.7159 30.8726 30.6087 30.4797 30.4301C30.0869 30.2515 29.694 30.0015 29.3725 29.6801C29.0154 29.3586 28.7296 29.0015 28.4796 28.5729C28.2296 28.1443 28.0868 27.68 28.0153 27.2156C27.9796 26.9656 27.9439 26.7156 27.9796 26.4656C27.9796 26.3942 27.9796 26.3227 27.9796 26.2513V26.2156V26.1799C27.9796 26.1442 27.9796 26.1084 27.9796 26.0727C27.9796 25.9299 28.0153 25.8227 28.051 25.6798C28.2296 24.6084 28.7654 23.5726 29.5868 22.7868C29.8011 22.5725 30.0154 22.3939 30.2655 22.2511C30.5155 22.0725 30.7655 21.9296 31.0155 21.8225C31.2655 21.7153 31.5512 21.6082 31.837 21.5367C32.1227 21.4653 32.4084 21.3939 32.6942 21.3939C32.837 21.3939 32.9799 21.3582 33.1228 21.3582C33.1585 21.3582 33.1942 21.3582 33.2299 21.3582H33.3371H33.4085H33.4442H33.5514C33.8728 21.3939 34.1943 21.4296 34.48 21.501C35.0872 21.6439 35.6943 21.8582 36.2658 22.1796C37.4087 22.8225 38.3731 23.7869 38.9445 24.9655C39.2303 25.537 39.4446 26.1799 39.5517 26.8585C39.5874 27.0371 39.5874 27.1799 39.6231 27.3585V27.4657V27.5728C39.6231 27.6085 39.6231 27.6442 39.6231 27.68C39.6231 27.7157 39.6231 27.7514 39.6231 27.7871V27.8943V28.0014C39.6231 28.0728 39.6231 28.2157 39.6231 28.2871C39.6231 28.4657 39.5874 28.6443 39.5874 28.8229C39.5517 29.0015 39.5517 29.18 39.516 29.3586C39.4803 29.5372 39.4446 29.7158 39.4088 29.8944C39.3374 30.2515 39.1946 30.573 39.0874 30.9302C38.8374 31.6088 38.4802 32.2517 38.0516 32.8231C37.1944 34.0018 36.0158 34.9661 34.6943 35.5733C34.0157 35.859 33.3371 36.109 32.6227 36.2162C32.2656 36.2876 31.9084 36.3233 31.5512 36.3233H31.4798H31.4084H31.3012H31.1226H31.0155H30.9798C30.8012 36.3233 30.5869 36.3233 30.4083 36.2876C29.6226 36.2162 28.8725 36.0733 28.1225 35.859C27.3724 35.6447 26.6581 35.359 25.9795 35.0018C24.6223 34.2875 23.4079 33.2517 22.4436 32.0731C21.9793 31.4659 21.5507 30.823 21.1935 30.1444C20.8363 29.4658 20.5863 28.7515 20.372 28.0371C20.1577 27.3228 20.0506 26.5728 20.0149 25.8227V25.6798V25.6441V25.6084V25.537V25.4298V25.3941V25.3584V25.287V25.1084V25.0727V25.0012C20.0149 24.8941 20.0149 24.8227 20.0149 24.7155C20.0149 24.3583 20.0506 23.9655 20.122 23.5726C20.1577 23.1797 20.2291 22.8225 20.3006 22.4297C20.372 22.0368 20.4792 21.6796 20.5863 21.2867C20.8006 20.5367 21.0506 19.8224 21.3721 19.1437C22.015 17.7865 22.8364 16.5722 23.8008 15.6078C24.0508 15.3578 24.3008 15.1435 24.5865 14.9292C24.6937 14.8221 24.9437 14.6078 25.2294 14.4292C25.5152 14.2506 25.8009 14.072 26.1224 13.9292C26.2652 13.8577 26.4081 13.7863 26.5867 13.7149C26.6581 13.6791 26.7295 13.6434 26.8367 13.6077C26.9081 13.572 26.9795 13.5363 27.0867 13.5006C27.4081 13.3577 27.7296 13.2505 28.051 13.1434C28.1225 13.1077 28.2296 13.1077 28.3011 13.072C28.3725 13.0362 28.4796 13.0362 28.5511 13.0005C28.7296 12.9648 28.8725 12.9291 29.0511 12.8577C29.1225 12.8219 29.2297 12.8219 29.3011 12.7862C29.3725 12.7862 29.4797 12.7505 29.5511 12.7505C29.6226 12.7505 29.7297 12.7148 29.8011 12.7148L29.944 12.6791L30.0869 12.6434C30.1583 12.6434 30.2655 12.6076 30.3369 12.6076C30.444 12.6076 30.5155 12.5719 30.6226 12.5719C30.694 12.5719 30.8369 12.5362 30.9083 12.5362C30.9798 12.5362 31.0155 12.5362 31.0869 12.5005H31.1941H31.2655H31.3369C31.4441 12.5005 31.5155 12.5005 31.6227 12.4648H31.7655H31.8013H31.8727C31.9441 12.4648 32.0513 12.4648 32.1227 12.4648C32.4442 12.4648 32.7656 12.4648 33.087 12.4648C33.7299 12.5005 34.3728 12.5719 34.98 12.6791C36.1944 12.8934 37.373 13.2863 38.4088 13.822C39.4446 14.322 40.4089 14.9649 41.1947 15.6435C41.2304 15.6793 41.3018 15.715 41.3375 15.7864C41.3732 15.8221 41.4447 15.8578 41.4804 15.9293C41.5875 16.0007 41.659 16.1079 41.7661 16.1793C41.8733 16.2507 41.9447 16.3579 42.0519 16.4293C42.1233 16.5364 42.2304 16.6079 42.3019 16.715C42.659 17.0722 42.9805 17.4651 43.2662 17.8222C43.8377 18.5723 44.302 19.3223 44.6592 20.0367C44.6949 20.0724 44.6949 20.1081 44.7306 20.1795C44.7663 20.2152 44.7663 20.251 44.802 20.3224C44.8377 20.3938 44.8735 20.501 44.9449 20.5724C44.9806 20.6438 45.0163 20.751 45.052 20.8224C45.0878 20.8938 45.1235 21.001 45.1592 21.0724C45.3021 21.3939 45.4092 21.7153 45.5163 22.0368C45.6949 22.5368 45.8021 22.9654 45.9092 23.3226C45.9449 23.4654 46.0878 23.5726 46.2307 23.5726C46.4093 23.5726 46.5164 23.4297 46.5164 23.2511C46.4807 22.8225 46.4807 22.3582 46.445 21.8225Z"></path>
</svg>
