<svg xmlns="http://www.w3.org/2000/svg" fill="none" viewBox="0 0 106 40" height="40" width="106">
<path fill="#5B666F" d="M93.3742 5.85452C86.8712 5.85452 81.5776 11.1481 81.5776 17.6862C81.5776 24.2068 86.8712 29.518 93.3742 29.518C99.8598 29.518 105.153 24.2068 105.153 17.6862C105.153 11.1481 99.8598 5.85452 93.3742 5.85452ZM93.3742 23.9089C89.9562 23.9089 87.1692 21.1218 87.1692 17.6862C87.1692 14.2507 89.9562 11.4636 93.3742 11.4636C96.7923 11.4636 99.5793 14.2507 99.5793 17.6862C99.5618 21.1218 96.7748 23.9089 93.3742 23.9089ZM58.6678 15.2848L56.617 14.2507C55.7231 13.8124 55.1621 13.4619 54.9343 13.1989C54.7239 12.9711 54.6012 12.6731 54.6012 12.3576C54.6012 11.9544 54.7765 11.6214 55.1271 11.3585C55.4777 11.0955 55.9685 10.9553 56.617 10.9553C57.7739 10.9553 59.0535 11.6564 60.4733 13.0587L63.9439 9.57055C63.085 8.39614 61.9632 7.46713 60.6836 6.80105C59.4216 6.17003 58.0018 5.83699 56.5819 5.83699C54.461 5.83699 52.7082 6.46801 51.3409 7.73006C49.9737 8.99211 49.2901 10.5171 49.2901 12.2875C49.2901 15.0394 51.0955 17.3357 54.7239 19.1762L56.617 20.1227C58.2472 20.9465 59.0535 21.7879 59.0535 22.6643C59.0535 23.1376 58.8256 23.5408 58.3874 23.9089C57.9316 24.2594 57.3357 24.4347 56.5995 24.4347C55.9159 24.4347 55.1271 24.1893 54.2507 23.716C53.3742 23.2428 52.5855 22.6117 51.9369 21.8405L48.4838 25.6266C50.4295 28.1858 53.0412 29.4829 56.3015 29.4829C58.7555 29.4829 60.7187 28.8168 62.1735 27.4671C63.6284 26.135 64.3646 24.4698 64.3646 22.4715C64.3646 20.9641 63.9614 19.667 63.1551 18.5451C62.3138 17.4584 60.8238 16.3716 58.6678 15.2848ZM23.681 26.9413V6.31025H18.0894V7.69501C16.2138 6.48554 14.0053 5.83699 11.7791 5.83699C5.2936 5.83699 0 11.1306 0 17.6687C0 24.1893 5.2936 29.5004 11.7791 29.5004C13.9877 29.5004 16.1613 28.8869 18.0368 27.695C18.0368 27.8703 18.0368 28.028 18.0368 28.1507C18.0368 31.5863 15.2498 34.3734 11.8317 34.3734C10.6748 34.3734 9.5355 34.0403 8.5539 33.4268L5.7844 38.2997C7.60736 39.404 9.71078 40 11.8493 40C18.3523 40 23.716 34.6889 23.716 28.1683C23.681 27.9229 23.6985 27.1867 23.681 26.9413ZM11.7616 23.9089C8.34356 23.9089 5.55653 21.1218 5.55653 17.6862C5.55653 14.2507 8.34356 11.4636 11.7616 11.4636C15.1797 11.4636 17.9667 14.2507 17.9667 17.6862C17.9667 21.1218 15.1797 23.9089 11.7616 23.9089ZM45.9597 6.31025H40.333V17.5635C40.333 19.1586 40.333 21.9281 39.1586 23.1025C38.5977 23.6635 37.9842 24.1718 36.6871 24.1718C35.39 24.1718 34.7765 23.6635 34.2156 23.1025C33.0412 21.9281 33.0412 19.1586 33.0587 17.5635V6.31025H27.4496V17.5285C27.4321 19.8422 27.4145 24.1367 30.2191 26.9939C31.8668 28.6591 33.83 29.518 36.6871 29.518C39.5443 29.518 41.5075 28.6766 43.1551 26.9939C45.9772 24.1367 45.9422 19.8422 45.9246 17.5285L45.9597 6.31025ZM77.8089 22.9097C77.3532 23.2603 76.2664 24.014 75.0394 23.8387C74.0228 23.6985 73.199 22.9623 73.0762 20.4733V11.1306H79.6845V6.29273H73.0762V0H67.4671V1.24452V19.7371C67.4671 22.6819 68.2033 29.518 75.0394 29.518C78.4926 29.4654 80.5784 27.5898 81.4549 26.8536L81.5776 26.766L78.2121 22.6117C78.1946 22.6117 77.9667 22.8046 77.8089 22.9097Z"></path>
</svg>
