<svg xmlns="http://www.w3.org/2000/svg" fill="none" viewBox="0 0 110 60" height="60" width="110">
<path fill="#9C9B94" d="M62.3668 20.3936C62.948 20.3936 63.5039 20.1661 63.9083 19.7871C64.3126 19.3827 64.5653 18.852 64.5653 18.2708C64.5653 17.6896 64.3126 17.1336 63.9083 16.7293C63.5039 16.325 62.948 16.0975 62.3668 16.0723C61.7855 16.0975 61.2548 16.325 60.8505 16.7293C60.4462 17.1336 60.2188 17.6896 60.2188 18.2708C60.2188 18.8268 60.4462 19.3827 60.8505 19.7618C61.2548 20.1661 61.7855 20.3936 62.3668 20.3936Z"></path>
<path fill="#9C9B94" d="M77.3505 22.4412H82.6826V22.8708C82.3793 22.9213 82.1014 23.0224 81.8486 23.1487C81.3685 23.3762 80.383 24.4628 79.6501 26.3076C78.3866 29.4917 77.0472 33.257 75.6573 37.5783L75.1267 39.2209C74.8992 39.9537 74.6971 40.4339 74.596 40.7371C74.4949 41.0404 74.3685 41.47 74.1411 42.0259C74.0147 42.4303 73.8378 42.8346 73.6357 43.2137C73.383 43.6938 72.8776 44.6794 72.4985 44.9826C71.892 45.488 70.9823 46.0693 69.8451 45.9934C67.6465 45.9934 65.9787 44.3508 65.9534 42.405C65.9534 41.0909 66.7873 40.2065 68.0509 40.2065C68.9606 40.2065 69.7693 40.6866 69.7693 41.7227C69.7693 42.4555 69.0364 43.2389 69.0364 43.618C69.0364 44.6288 69.6176 45.0837 70.7548 45.0837C71.6646 45.0837 72.3974 44.5025 72.9534 43.34C73.7115 42.0259 73.762 40.5602 73.1555 38.9682L68.4805 26.6866C67.4191 23.8563 66.5852 22.9213 65.5996 22.8202V22.3906H72.9534V22.8202C72.0689 22.9213 71.614 23.4267 71.614 24.3617C71.614 25.044 71.8667 26.0801 72.3469 27.3942L73.2314 29.7697C74.2422 32.3473 75.0508 34.5964 75.4804 36.0115C76.4155 33.0801 77.2999 30.5025 78.1339 28.2534C78.7404 26.5856 79.0436 25.3726 79.0436 24.665C79.0436 23.4015 78.3613 22.8202 77.3252 22.8202L77.3505 22.4412Z"></path>
<path fill="#9C9B94" d="M26.1032 38.1335C25.1682 37.9819 24.3595 37.1227 24.3595 35.3537V14L19.0021 15.1625V15.6173C19.9119 15.5162 20.8216 16.3249 20.8216 18.0433V35.379C20.8216 37.0469 19.9119 38.0324 19.0021 38.1588C18.9263 38.184 18.8252 38.184 18.7494 38.184C18.2945 38.2093 17.8144 38.1335 17.3848 37.9566C16.6772 37.6533 16.0707 37.0974 15.5653 36.2635L13.0888 32.3212C12.5581 31.4873 11.8 30.8555 10.865 30.5018C9.95522 30.148 8.9444 30.0974 7.98411 30.3501L10.7639 27.2924C12.8613 24.9675 14.8325 23.5018 16.6772 22.87V22.4404H10.5364V22.87C12.1285 23.4765 12.0274 24.8411 10.2079 26.9639L6.29098 31.5126V14L0.933594 15.1625V15.6173C1.84334 15.6173 2.75308 16.5271 2.75308 18.0938V35.379C2.75308 37.2743 1.86861 38.0324 0.933594 38.1588V38.5884H8.03465V38.1588C6.8722 38.0071 6.29098 37.0974 6.29098 35.379V32.1949L7.80722 30.527L11.4967 36.5414C12.3812 37.9819 13.1899 38.5631 14.4787 38.5631H26.836V38.2346C26.8866 38.2346 26.5328 38.2093 26.1032 38.1335Z"></path>
<path fill="#9C9B94" d="M40.8609 36.0856V28.8835C40.785 24.1832 38.7887 22.0352 34.2399 22.0352C32.7742 22.0352 31.3591 22.49 30.2219 23.3998C29.0089 24.3095 28.4277 25.3456 28.4277 26.5333C28.4277 27.6958 29.0847 28.555 30.1461 28.555C31.2833 28.555 32.0919 27.9232 32.0919 27.0135C32.0919 26.3312 31.6371 25.3962 31.6371 24.7644C31.6371 23.6019 32.5215 22.5911 34.0378 22.5911C35.9836 22.5911 37.3735 24.0315 37.3735 27.2662V29.1868L35.7562 29.5658C34.9222 29.7174 34.1894 29.8943 33.6587 30.046C33.1028 30.1976 32.3952 30.425 31.5612 30.7535C29.8681 31.4106 28.9584 32.0171 28.175 33.1795C27.7959 33.7355 27.5938 34.3925 27.5938 35.0748C27.5938 37.7535 29.4638 38.9665 32.1172 38.9665C34.1894 38.9665 36.4132 37.8799 37.3988 35.8077C37.424 36.4647 37.5757 37.0965 37.8536 37.6777C38.9656 39.9015 42.6045 38.5874 42.6045 38.5874V38.1578C40.9872 38.4358 40.8609 36.5405 40.8609 36.0856ZM37.3988 33.8618C37.3988 34.9232 37.0197 35.7824 36.2363 36.4142C35.4782 37.0207 34.7201 37.3492 33.9114 37.3492C32.3194 37.3492 31.2833 36.3131 31.2833 34.4178C31.2833 33.508 31.7887 32.6741 32.193 32.194C32.5215 31.8654 32.9006 31.5875 33.3302 31.3853C33.8861 31.1073 34.1641 30.9557 34.5432 30.7788L36.0342 30.2229C36.767 29.9449 37.2219 29.768 37.424 29.6669L37.3988 33.8618Z"></path>
<path fill="#9C9B94" d="M109.065 22.4404H96.4551V14H109.065L106.412 18.2202L109.065 22.4404Z"></path>
<path fill="#9C9B94" d="M83.4165 36.517C81.8497 34.8996 80.9905 32.7516 81.0158 30.5025C80.9905 29.3906 81.1927 28.304 81.6223 27.2679C82.0266 26.2318 82.6584 25.2968 83.4165 24.5134C85.0085 22.8455 86.9544 21.9863 89.2287 21.9863C91.4778 21.9863 93.4237 22.8203 95.0157 24.5134C95.7991 25.2968 96.4309 26.2318 96.8352 27.2426C97.2648 28.2787 97.467 29.3654 97.4417 30.4773C97.467 31.5892 97.2396 32.7011 96.8352 33.7119C96.4056 34.748 95.7991 35.683 95.0157 36.4664C93.4237 38.109 91.4778 38.943 89.2287 38.943C86.9544 38.9935 85.0085 38.1596 83.4165 36.517ZM92.1601 24.7914C91.5284 23.5531 90.6692 22.8203 89.6836 22.6181C87.6872 22.2138 85.893 24.2607 85.236 27.5206C84.958 28.9863 84.8822 30.4773 85.0338 31.9682C85.1854 33.4592 85.5898 34.8996 86.2468 36.239C86.8786 37.4772 87.7378 38.2101 88.7233 38.4123C90.7197 38.8166 92.5645 36.6686 93.2215 33.3834C93.8027 30.6289 93.5248 27.2679 92.1601 24.7914Z"></path>
<path fill="#9C9B94" d="M64.2356 35.3547V22.4414H52.8132V22.8205C54.3295 23.0479 55.0623 24.1851 54.38 26.0551C50.8169 35.6832 51.0443 35.2536 50.8169 36.037C50.5894 35.3042 50.0587 33.4594 49.2248 31.1851C48.3909 28.9107 47.8349 27.3692 47.6075 26.7122C46.723 24.0335 47.0263 23.0479 48.4414 22.871V22.4414H41.0371V22.871C42.149 23.0984 43.1093 24.362 43.918 26.6111L45.0551 29.5425C46.2934 32.7013 47.7591 37.0731 48.2645 38.5641H50.7158C51.4992 36.2645 54.6833 27.1165 55.1129 26.1815C55.5677 25.1201 56.0984 24.3114 56.6797 23.7555C56.9576 23.4522 57.3114 23.2248 57.6905 23.0732C58.0695 22.9215 58.4739 22.8457 58.8782 22.8457C58.8782 22.8457 60.6724 22.8457 60.6724 24.5641V26.0046C60.6724 26.0298 60.6724 26.0298 60.6724 26.0551V35.38C60.6724 37.1742 59.7879 38.0334 58.8782 38.1598V38.5894H65.954V38.1598C65.019 38.0081 64.2356 37.1742 64.2356 35.3547Z"></path>
</svg>
