<svg xmlns="http://www.w3.org/2000/svg" fill="none" viewBox="0 0 132 60" height="60" width="132">
<path fill="#9C9B94" d="M12.2467 28.2014C11.631 27.9821 11.0718 27.6285 10.6097 27.1663C10.1475 26.7042 9.79391 26.145 9.57456 25.5293C9.38064 25.9928 9.09374 26.4116 8.73159 26.7598C7.9091 27.5823 6.88194 27.9111 5.81385 27.952L5.8292 27.9674C5.06299 27.9885 4.32007 28.2354 3.69354 28.6769C3.06702 29.1185 2.58476 29.7352 2.30721 30.4497C2.02965 31.1642 1.96915 31.9447 2.13329 32.6934C2.29743 33.4421 2.67889 34.1258 3.22989 34.6586C3.78088 35.1915 4.47689 35.5498 5.23069 35.6888C5.98449 35.8278 6.76254 35.7412 7.46733 35.4399C8.17213 35.1386 8.77232 34.636 9.19268 33.995C9.61304 33.3541 9.83488 32.6033 9.83039 31.8368C9.90841 30.8135 10.2231 29.8336 11.0136 29.0444C11.3735 28.6951 11.7905 28.41 12.2467 28.2014Z"></path>
<path fill="#9C9B94" d="M32.37 21.2111C31.6394 20.4806 30.6485 20.0703 29.6154 20.0703C28.5822 20.0703 27.5914 20.4806 26.8607 21.2111C26.1576 21.9087 25.7527 22.852 25.7312 23.8423C25.6686 24.9104 25.3603 25.9388 24.5391 26.76C24.1846 27.1165 23.7657 27.4026 23.3047 27.603C23.9232 27.8256 24.4851 28.1817 24.9504 28.646C25.4158 29.1102 25.7732 29.6712 25.9973 30.2892C26.1866 29.8236 26.4741 29.4043 26.8403 29.0599C27.6628 28.2375 28.6899 27.9087 29.7593 27.8678C30.7494 27.8445 31.6922 27.4394 32.3905 26.737C33.1131 25.9976 33.5159 25.0037 33.512 23.9698C33.5082 22.936 33.098 21.9451 32.37 21.2111ZM31.0129 25.3632C30.6404 25.7312 30.1383 25.9379 29.6147 25.9388C29.3554 25.9401 29.0984 25.8899 28.8586 25.7911C28.6188 25.6923 28.401 25.5469 28.2179 25.3632C27.9394 25.0863 27.7493 24.733 27.6717 24.348C27.5941 23.963 27.6326 23.5636 27.7822 23.2005C27.9317 22.8374 28.1857 22.5268 28.512 22.3081C28.8382 22.0894 29.222 21.9725 29.6147 21.9722C29.8744 21.9704 30.1317 22.0204 30.3718 22.1192C30.6118 22.218 30.8298 22.3637 31.0129 22.5478C31.3813 22.9235 31.5877 23.4287 31.5877 23.9548C31.5877 24.481 31.3813 24.9862 31.0129 25.3619V25.3632Z"></path>
<path fill="#9C9B94" d="M24.4773 29.1056C23.7739 28.4018 22.8268 27.9951 21.832 27.9697L21.8474 27.9544C20.778 27.9109 19.7508 27.6052 18.9284 26.7597C18.1059 25.9385 17.7771 24.91 17.7362 23.8419L17.7208 23.8573C17.6989 23.0915 17.4515 22.3491 17.0095 21.7233C16.5676 21.0975 15.9508 20.616 15.2364 20.3392C14.5221 20.0623 13.7419 20.0025 12.9936 20.1671C12.2454 20.3317 11.5624 20.7134 11.0301 21.2645C10.4979 21.8156 10.1401 22.5115 10.0016 23.265C9.86313 24.0185 9.95009 24.7961 10.2516 25.5005C10.5531 26.2048 11.0557 26.8045 11.6965 27.2244C12.3374 27.6443 13.0878 27.8657 13.854 27.861C14.8773 27.939 15.8571 28.255 16.6463 29.0442C17.4356 29.8335 17.7682 30.8146 17.8296 31.8379C17.8264 32.4791 17.9815 33.1112 18.2812 33.6781C18.5809 34.2449 19.016 34.729 19.5477 35.0874C20.0795 35.4457 20.6914 35.6673 21.3293 35.7323C21.9673 35.7974 22.6114 35.7039 23.2045 35.4603C23.7976 35.2167 24.3214 34.8304 24.7294 34.3357C25.1374 33.841 25.417 33.2532 25.5433 32.6246C25.6695 31.9959 25.6387 31.3458 25.4534 30.7319C25.2681 30.1181 24.9342 29.5594 24.4812 29.1056H24.4773Z"></path>
<path fill="#9C9B94" d="M67.3094 35.8055C65.337 35.8055 64.1039 34.5929 64.1039 32.6614V20.8228C64.1007 20.714 64.1197 20.6058 64.1599 20.5046C64.2 20.4035 64.2604 20.3116 64.3372 20.2346C64.4141 20.1576 64.5059 20.0971 64.607 20.0568C64.7081 20.0165 64.8163 19.9973 64.9251 20.0003C65.0332 19.9993 65.1404 20.0199 65.2405 20.0609C65.3405 20.1019 65.4313 20.1625 65.5076 20.2391C65.5839 20.3158 65.6441 20.4069 65.6846 20.5071C65.7252 20.6074 65.7453 20.7147 65.7437 20.8228V24.8509H68.6423C68.7489 24.8466 68.8552 24.8639 68.9549 24.9017C69.0547 24.9395 69.1457 24.9971 69.2226 25.071C69.2995 25.1449 69.3607 25.2335 69.4025 25.3317C69.4444 25.4298 69.4659 25.5353 69.4659 25.642C69.4659 25.7487 69.4444 25.8542 69.4025 25.9524C69.3607 26.0505 69.2995 26.1391 69.2226 26.213C69.1457 26.2869 69.0547 26.3445 68.9549 26.3823C68.8552 26.4202 68.7489 26.4374 68.6423 26.4332H65.7437V32.5795C65.7437 33.7103 66.2989 34.2424 67.4706 34.2424C67.7713 34.2462 68.0704 34.1978 68.3545 34.0991C68.4452 34.0592 68.5432 34.0383 68.6423 34.0377C68.847 34.0447 69.0414 34.1292 69.1863 34.274C69.3311 34.4189 69.4156 34.6133 69.4226 34.818C69.4246 34.9798 69.3735 35.1379 69.2772 35.2679C69.1808 35.398 69.0446 35.4929 68.8892 35.5382C68.3802 35.7108 67.8469 35.8011 67.3094 35.8055Z"></path>
<path fill="#9C9B94" d="M76.0248 35.8057C74.5183 35.773 73.0568 35.2861 71.8317 34.4088C71.738 34.3301 71.662 34.2324 71.6089 34.1221C71.5558 34.0119 71.5266 33.8916 71.5234 33.7693C71.5277 33.5525 71.6157 33.3457 71.769 33.1924C71.9224 33.039 72.1291 32.951 72.3459 32.9468C72.5294 32.9481 72.708 33.0057 72.8576 33.1118C73.8809 33.8511 74.9541 34.2208 76.0836 34.2208C77.3628 34.2208 78.2428 33.5428 78.2428 32.5976V32.5566C78.2428 31.6727 77.3794 31.2608 75.7549 30.8093L75.7139 30.7888L75.673 30.7684C74.0293 30.2951 71.9942 29.699 71.9942 27.6639V27.6229C71.9967 25.7963 73.5586 24.457 75.7216 24.457C76.9489 24.482 78.1503 24.8141 79.2163 25.4228L79.2367 25.4433C79.3602 25.5191 79.4625 25.6249 79.5343 25.7507C79.606 25.8766 79.6449 26.0185 79.6473 26.1634C79.6449 26.3115 79.6033 26.4564 79.5266 26.5831C79.45 26.7099 79.3411 26.8141 79.2111 26.8851C79.0811 26.9561 78.9346 26.9913 78.7865 26.9872C78.6384 26.9831 78.4941 26.9399 78.3682 26.8618C77.4843 26.3502 76.5595 26.0598 75.6756 26.0598C74.4834 26.0598 73.6609 26.6559 73.6609 27.5193V27.5603C73.6609 28.4237 74.7507 28.7934 76.2921 29.2462C77.6493 29.6299 79.9096 30.2529 79.9096 32.4517V32.4927C79.9096 34.4088 78.2863 35.8057 76.0248 35.8057Z"></path>
<path fill="#9C9B94" d="M83.4856 35.6824C83.3756 35.686 83.2661 35.6674 83.1635 35.6276C83.0609 35.5878 82.9675 35.5277 82.8887 35.4509C82.81 35.374 82.7476 35.2821 82.7053 35.1805C82.663 35.079 82.6417 34.9699 82.6426 34.8599V20.8225C82.6426 20.6044 82.7293 20.3952 82.8835 20.2409C83.0378 20.0867 83.247 20 83.4651 20C83.6832 20 83.8924 20.0867 84.0467 20.2409C84.2009 20.3952 84.2876 20.6044 84.2876 20.8225V34.8599C84.2955 34.9682 84.2803 35.0769 84.2431 35.1789C84.2059 35.2809 84.1474 35.3739 84.0716 35.4516C83.9958 35.5293 83.9044 35.5901 83.8034 35.6299C83.7023 35.6697 83.594 35.6876 83.4856 35.6824Z"></path>
<path fill="#9C9B94" d="M99.0001 35.8498C95.8764 35.8498 93.4102 33.3619 93.4102 30.1768V30.1358C93.4102 26.929 95.8764 24.4219 99.0384 24.4219C102.162 24.4219 104.628 26.9085 104.628 30.0949V30.1358C104.628 33.3414 102.167 35.8498 99.0001 35.8498ZM99.0001 26.0247C96.8012 26.0247 95.137 27.772 95.137 30.1179V30.1589C95.137 32.4613 96.8421 34.2893 99.0423 34.2893C101.242 34.2893 102.905 32.5432 102.905 30.196V30.155C102.907 27.8334 101.201 26.0247 99.0001 26.0247Z"></path>
<path fill="#9C9B94" d="M56.3316 35.8498C53.2693 35.8498 50.9668 33.4028 50.9668 30.1563V30.1154C50.9668 26.929 53.2488 24.4219 56.1666 24.4219C59.0843 24.4219 61.2026 26.8062 61.2026 30.0732C61.1908 30.2856 61.0998 30.4858 60.9475 30.6343C60.7952 30.7828 60.5927 30.8688 60.3801 30.8752H54.7697C54.5662 30.8752 54.371 30.7943 54.227 30.6504C54.0831 30.5065 54.0022 30.3113 54.0022 30.1077C54.0022 29.9042 54.0831 29.7089 54.227 29.565C54.371 29.4211 54.5662 29.3402 54.7697 29.3402H59.4348C59.2084 27.7374 58.2426 26.0144 56.109 26.0144C54.3566 26.0042 52.961 27.401 52.6732 29.3748L52.6323 29.7035C52.5912 30.0173 52.5912 30.335 52.6323 30.6488V30.6693C52.8369 32.7863 54.3578 34.2662 56.3111 34.2662C57.5033 34.2662 58.4857 33.8556 59.4143 32.9513C59.4861 32.877 59.5725 32.8186 59.6681 32.7796C59.7636 32.7406 59.8663 32.722 59.9695 32.7249C60.0763 32.7228 60.1825 32.742 60.2819 32.7814C60.3813 32.8207 60.4718 32.8794 60.5483 32.954C60.6249 33.0286 60.6858 33.1176 60.7276 33.216C60.7694 33.3143 60.7913 33.42 60.792 33.5269C60.791 33.6363 60.7667 33.7443 60.7206 33.8436C60.6745 33.9429 60.6077 34.0312 60.5246 34.1025C59.3325 35.3151 58.0789 35.8498 56.3316 35.8498Z"></path>
<path fill="#9C9B94" d="M107.595 40.0007C107.484 40.0037 107.373 39.9839 107.269 39.9427C107.166 39.9015 107.072 39.8396 106.993 39.7609C106.914 39.6821 106.852 39.5882 106.811 39.4847C106.769 39.3812 106.749 39.2704 106.752 39.159V29.6216C106.752 26.4775 109.183 24.4219 112.056 24.4219C115.179 24.4219 117.645 26.9085 117.645 30.0949V30.1358C117.645 33.3414 115.179 35.8498 112.017 35.8498C110.599 35.8498 109.325 35.3382 108.4 34.3903V39.159C108.397 39.6515 108.067 40.0007 107.595 40.0007ZM108.397 30.6283C108.581 32.7044 109.98 34.1639 111.87 34.2662H112.076C112.732 34.2739 113.379 34.1038 113.946 33.7738C114.008 33.7328 114.048 33.7124 114.11 33.6701C114.579 33.3614 114.969 32.9459 115.247 32.4575C115.288 32.3961 115.308 32.3552 115.351 32.2938C115.413 32.1829 115.464 32.0659 115.503 31.9446C115.733 31.3836 115.852 30.7831 115.852 30.1768V30.1358C115.852 29.6477 115.777 29.1625 115.631 28.6968C115.591 28.5704 115.543 28.4469 115.486 28.3271C115.445 28.2049 115.389 28.0878 115.321 27.9779C114.989 27.3675 114.499 26.8566 113.904 26.4979C113.854 26.4617 113.798 26.4336 113.739 26.4148C113.628 26.3548 113.511 26.3068 113.39 26.2715C113.149 26.1842 112.902 26.1153 112.65 26.0656C112.521 26.0418 112.39 26.0282 112.259 26.0247H112.054C110.06 26.0247 108.621 27.4842 108.416 29.6421V30.6283H108.397Z"></path>
<path fill="#9C9B94" d="M91.5243 35.7018C91.4134 35.7031 91.3034 35.6819 91.201 35.6395C91.0985 35.597 91.0057 35.5342 90.9282 35.4549L85.8282 30.2961C85.6802 30.1521 85.5936 29.9564 85.5864 29.7499C85.5793 29.5435 85.6522 29.3423 85.7899 29.1884L85.8103 29.1461L90.4549 24.8507C90.5916 24.6954 90.7834 24.5995 90.9896 24.5834C91.0961 24.5708 91.2041 24.5807 91.3065 24.6125C91.409 24.6442 91.5037 24.697 91.5844 24.7676C91.7514 24.9107 91.8556 25.1135 91.8747 25.3326C91.8939 25.5516 91.8264 25.7694 91.6868 25.9393L91.6458 25.9802L87.5359 29.7205L92.0782 34.3254C92.1575 34.4029 92.2203 34.4957 92.2627 34.5982C92.3051 34.7006 92.3264 34.8106 92.3251 34.9215C92.3281 35.0294 92.3076 35.1367 92.2649 35.2359C92.2223 35.3351 92.1586 35.4238 92.0782 35.4959C91.9271 35.6334 91.7286 35.7072 91.5243 35.7018Z"></path>
<path fill="#9C9B94" d="M47.7442 35.8483C47.6333 35.8493 47.5233 35.8282 47.4206 35.7862C47.318 35.7442 47.2247 35.6821 47.1463 35.6036C47.068 35.5251 47.006 35.4318 46.9642 35.329C46.9223 35.2263 46.9014 35.1163 46.9026 35.0053V29.2491C46.9026 27.2345 45.7923 26.0423 43.9221 26.0423C42.052 26.0423 40.9417 27.2345 40.9417 29.2491V35.0053C40.9429 35.1164 40.9219 35.2265 40.88 35.3293C40.838 35.4321 40.776 35.5255 40.6975 35.6041C40.619 35.6826 40.5256 35.7446 40.4227 35.7866C40.3199 35.8285 40.2098 35.8495 40.0987 35.8483C39.9883 35.8507 39.8786 35.8304 39.7764 35.7886C39.6741 35.7468 39.5816 35.6845 39.5045 35.6054C39.4273 35.5264 39.3673 35.4323 39.328 35.3291C39.2888 35.2258 39.2711 35.1157 39.2763 35.0053V29.0854C39.2763 26.2905 41.044 24.4805 43.7533 24.4805H44.0411C46.7746 24.4805 48.5181 26.2892 48.5181 29.0854V35.0053C48.5313 35.1133 48.521 35.2229 48.4877 35.3265C48.4545 35.43 48.3992 35.5252 48.3256 35.6053C48.252 35.6854 48.162 35.7487 48.0616 35.7906C47.9612 35.8326 47.853 35.8522 47.7442 35.8483Z"></path>
<path fill="#9C9B94" d="M125.085 35.8498C122.025 35.8498 119.723 33.4028 119.723 30.1563V30.1154C119.723 26.929 122.005 24.4219 124.922 24.4219C127.84 24.4219 129.956 26.8062 129.956 30.0732C129.951 30.288 129.862 30.4923 129.709 30.6423C129.555 30.7923 129.348 30.8759 129.133 30.8752H123.543C123.34 30.8752 123.145 30.7943 123.001 30.6504C122.857 30.5065 122.776 30.3113 122.776 30.1077C122.776 29.9042 122.857 29.7089 123.001 29.565C123.145 29.4211 123.34 29.3402 123.543 29.3402H128.209C127.982 27.7374 127.016 26.0144 124.883 26.0144C123.135 26.0144 121.739 27.4125 121.451 29.385L121.406 29.7035C121.365 30.0173 121.365 30.335 121.406 30.6488V30.6693C121.611 32.7863 123.132 34.2662 125.085 34.2662C126.277 34.2662 127.259 33.8556 128.188 32.9513C128.26 32.877 128.346 32.8186 128.442 32.7796C128.537 32.7406 128.64 32.722 128.743 32.7249C128.85 32.723 128.956 32.7423 129.055 32.7817C129.155 32.8211 129.245 32.8798 129.322 32.9544C129.398 33.0289 129.459 33.1179 129.501 33.2162C129.543 33.3145 129.565 33.4201 129.566 33.5269C129.565 33.6363 129.54 33.7443 129.494 33.8436C129.448 33.9429 129.381 34.0312 129.298 34.1025C128.086 35.3151 126.812 35.8498 125.085 35.8498Z"></path>
</svg>
