<svg xmlns="http://www.w3.org/2000/svg" fill="none" viewBox="0 0 130 60" height="60" width="130">
<path fill="#9C9B94" d="M30.9911 24.459H20.6328V34.1516H23.5702V30.4202H31.212C33.327 30.4202 34.4957 29.6934 34.4957 27.9889V26.9157C34.4643 25.3366 33.1449 24.459 30.9911 24.459ZM31.9688 27.5531H31.9374C31.9374 28.2471 31.812 28.6262 30.6747 28.6262H23.5702L23.6015 26.1008H30.5479C31.812 26.1008 31.9688 26.4799 31.9688 27.1456V27.5531Z"></path>
<path fill="#9C9B94" d="M41.2517 26.2245L44.2517 30.3619H37.9994L36.4531 32.0037H45.4831L47.0309 34.15H50.504L43.0204 24.0469L41.2517 26.2245Z"></path>
<path fill="#9C9B94" d="M96.1638 26.8575L92.8175 24.459H88.207L93.6384 28.4366C94.4265 27.9008 95.3429 27.3322 96.1638 26.8575Z"></path>
<path fill="#9C9B94" d="M13.8439 28.2135H5.44525V26.124H16.2782C15.9946 25.2389 15.0842 24.418 13.4677 24.418H5.60197C3.80195 24.418 2.76612 25.0822 2.76612 26.5344V28.0807C2.76612 29.3449 3.84076 30.0703 5.41839 30.0703H13.9125V32.2807H2.47656C2.76015 33.4748 3.67061 34.1121 5.31242 34.1121H13.8752C15.6752 34.1121 16.5618 33.4181 16.5618 31.933V30.3927C16.5588 29.0344 15.517 28.3091 13.8439 28.2135Z"></path>
<path fill="#9C9B94" d="M56.1308 26.1318H67.119C66.8339 24.9944 65.7294 24.4258 64.1503 24.4258H55.9412C54.5203 24.4258 53.1621 24.9944 53.1621 26.5422V31.9736C53.1621 33.5199 54.5203 34.0886 55.9412 34.0886H64.2458C66.1399 34.0886 66.8026 33.5513 67.119 32.2572H56.1308V26.1318Z"></path>
<path fill="#9C9B94" d="M97.1758 31.1186L101.28 34.1186H105.922L99.5131 29.4141C98.7221 29.9514 97.9325 30.5588 97.1758 31.1186Z"></path>
<path fill="#9C9B94" d="M84.6675 24.459H71.4375V26.1635H84.6675V24.459Z"></path>
<path fill="#9C9B94" d="M74.0922 29.3527H79.9967V27.7109H71.125V34.1513H84.2281V32.3199H74.0922V29.3527Z"></path>
<path fill="#9C9B94" d="M88.4279 33.6138L87.8906 34.1183H92.5638C105.195 21.454 123.351 19.2151 127.993 18.8047C102.731 20.2599 91.0563 31.0556 88.4279 33.6138Z"></path>
</svg>
