<svg xmlns="http://www.w3.org/2000/svg" fill="none" viewBox="0 0 100 60" height="60" width="100">
<path fill="#9C9B94" d="M0.776914 30.3516C0.542507 20.9753 7.92635 13.2398 17.3027 13.0054C26.679 12.771 34.4144 20.1549 34.6488 29.5312V30.4688C34.4144 39.8451 26.5618 47.229 17.1855 46.9946C8.27797 46.643 1.01132 39.3763 0.776914 30.3516ZM27.6162 32.5786V33.2818C27.6162 37.1495 23.1625 40.1968 17.6539 40.1968C12.1453 40.1968 7.69153 37.1495 7.69153 33.2818V32.5786C6.40229 31.9926 5.93348 30.5861 6.40229 29.2969C6.7539 28.3592 7.69153 27.7732 8.62917 27.8904C9.33239 27.8904 9.91841 28.1248 10.3872 28.5936C12.3797 27.3044 14.7238 26.484 17.0679 26.484L18.3571 20.6238C18.3571 20.5066 18.4743 20.3894 18.4743 20.3894C18.5915 20.2722 18.7087 20.2722 18.8259 20.2722L22.928 21.2098C23.3969 20.3894 24.4517 19.9206 25.2721 20.3894C26.0926 20.8582 26.5614 21.913 26.0926 22.7334C25.6237 23.5539 24.5689 24.0227 23.7485 23.5539C23.1625 23.3195 22.8108 22.7334 22.8108 22.0302L19.1775 21.2098L18.0055 26.484C20.584 26.6012 22.928 27.4216 24.5689 28.5936C25.5065 27.656 27.1474 27.656 28.085 28.5936C28.5538 29.0625 28.7882 29.6485 28.7882 30.3517C29.1399 31.4065 28.4366 32.227 27.6162 32.5786ZM13.9033 33.8678C14.841 33.8678 15.6614 33.0474 15.6614 32.1098C15.6614 31.1721 14.841 30.3517 13.9033 30.3517C12.9657 30.3517 12.1453 31.1721 12.1453 32.1098C12.1453 33.0474 12.8485 33.8678 13.9033 33.8678ZM21.9904 36.0947C21.756 35.8603 21.5216 35.8603 21.4044 36.0947C20.7012 36.9151 19.0603 37.1495 17.8883 37.1495C16.7162 37.1495 15.0754 36.9151 14.3722 36.0947C14.1378 35.8603 13.9033 35.8603 13.7861 36.0947C13.5517 36.3291 13.5517 36.5635 13.7861 36.6807C14.9582 37.8528 17.3023 37.97 18.0055 37.97C18.7087 37.97 20.9356 37.8528 22.2248 36.6807C22.159 36.6149 22.1302 36.5121 22.0967 36.3931C22.0707 36.3002 22.0418 36.1975 21.9904 36.0947ZM23.3969 32.1098C23.3969 31.1721 22.5764 30.3517 21.6388 30.3517C20.7012 30.3517 19.8807 31.1721 19.8807 32.1098C19.8807 33.0474 20.7012 33.8678 21.6388 33.8678C22.5764 33.8678 23.3969 33.0474 23.3969 32.1098ZM72.9762 38.3211C72.9762 39.0243 72.3902 39.4931 71.8042 39.4931C71.2181 39.4931 70.7493 39.0243 70.6321 38.5555C69.8117 39.3759 68.7569 39.8447 67.4676 39.8447C64.3031 39.8447 61.7246 36.9146 61.7246 33.3985C61.7246 29.8824 64.3031 26.9523 67.4676 26.9523C68.7569 26.9523 69.6945 27.3039 70.6321 28.1243V22.7329C70.7493 22.0297 71.3353 21.5609 71.9214 21.6781C72.5074 21.6781 72.9762 22.1469 72.9762 22.7329V38.3211ZM70.7493 33.3985C70.7493 31.1716 69.2257 29.2964 67.3504 29.2964C65.4751 29.2964 64.0687 31.1716 64.0687 33.3985C64.0687 35.6254 65.5923 37.3834 67.4676 37.3834C69.2257 37.5006 70.7493 35.6254 70.7493 33.3985ZM89.7366 22.9688C88.5646 22.9688 87.627 23.9064 87.627 25.0784C87.627 26.2505 88.5646 27.1881 89.7366 27.1881C90.9087 27.1881 91.8463 26.2505 91.8463 25.0784C91.8463 23.9064 90.9087 22.9688 89.7366 22.9688ZM51.7601 34.2198H59.1439C60.1988 34.2198 60.7848 33.3993 60.902 32.8133C60.902 32.5387 60.8618 32.3445 60.8285 32.1836C60.8049 32.0698 60.7848 31.9728 60.7848 31.8757C60.0816 29.18 57.8547 27.0703 55.159 27.0703C51.9945 27.0703 49.416 30.0004 49.416 33.5165C49.416 37.0326 51.9945 39.9627 55.159 39.9627C57.1515 39.9627 58.5579 39.2595 59.6128 38.0875C60.0816 37.5015 59.9644 36.681 59.3783 36.2122C58.7923 35.8606 58.2063 35.9778 57.7375 36.3294C57.2687 36.7982 56.4482 37.5015 55.0418 37.5015C53.4009 37.5015 52.1117 36.095 51.7601 34.2198ZM58.2063 32.1101H51.7601C52.3461 30.4692 53.5182 29.4144 55.0418 29.4144C56.4482 29.4144 57.7375 30.5864 58.2063 32.1101ZM49.2999 28.2421C49.2999 27.6561 48.8311 27.1873 48.2451 27.0701C46.6042 26.8357 44.9634 27.4217 43.9085 28.711V28.5938C43.9085 27.8905 43.3225 27.4217 42.7365 27.4217C42.0333 27.4217 41.5645 28.0077 41.5645 28.5938V38.5561C41.5645 39.1421 42.0333 39.7281 42.7365 39.8453C43.4397 39.8453 44.0257 39.3765 44.0257 38.6733V33.5163C44.0257 31.2894 45.7838 29.4142 48.1279 29.6486H48.3623C48.8311 29.4142 49.2999 28.8282 49.2999 28.2421ZM89.7345 28.475C90.3205 28.3578 90.9066 28.8266 91.0238 29.5298V38.4373C91.0238 39.0233 90.5549 39.4921 89.9689 39.4921C89.3829 39.6093 88.7969 39.1405 88.6797 38.4373V29.5298C88.6797 28.9438 89.1485 28.475 89.7345 28.475ZM84.4623 39.4931C85.0483 39.4931 85.6343 39.0243 85.6343 38.3211V22.7329C85.6343 22.1469 85.1655 21.6781 84.5795 21.6781C83.9934 21.5609 83.4074 22.0297 83.2902 22.7329V28.1243C82.3526 27.3039 81.4149 26.9523 80.1257 26.9523C76.9612 26.9523 74.3827 29.8824 74.3827 33.3985C74.3827 36.9146 76.9612 39.8447 80.1257 39.8447C81.4149 39.8447 82.4698 39.3759 83.2902 38.5555C83.4074 39.0243 83.8762 39.4931 84.4623 39.4931ZM80.0085 29.2964C81.8838 29.2964 83.4074 31.1716 83.4074 33.3985C83.4074 35.6254 82.001 37.5006 80.0085 37.3834C78.1332 37.3834 76.6096 35.6254 76.6096 33.3985C76.6096 31.0544 78.1332 29.2964 80.0085 29.2964ZM97.1198 38.4395V29.4148H98.1746C98.7607 29.4148 99.2295 28.946 99.2295 28.36C99.2295 27.7739 98.7607 27.1879 98.1746 27.1879H98.0574H97.0026V25.4299C97.0026 24.8438 96.5338 24.2578 95.8306 24.1406C95.1273 24.1406 94.5413 24.6094 94.5413 25.3127V27.0707H93.4865C92.9005 27.0707 92.4316 27.5395 92.4316 28.1256C92.4316 28.7116 92.9005 29.2976 93.4865 29.2976H94.5413V38.3223C94.5413 39.0255 95.1273 39.4943 95.7134 39.4943C96.651 39.6115 97.1198 39.0255 97.1198 38.4395Z" clip-rule="evenodd" fill-rule="evenodd"></path>
</svg>
