<svg xmlns="http://www.w3.org/2000/svg" fill="none" viewBox="0 0 88 60" height="60" width="88">
<path fill="#9C9B94" d="M87.2584 30.6006C87.2584 24.4483 84.2784 19.5938 78.5827 19.5938C72.863 19.5938 69.4023 24.4483 69.4023 30.5525C69.4023 37.7862 73.4878 41.4392 79.3517 41.4392C82.2116 41.4392 84.3745 40.7903 86.0087 39.8771V35.0706C84.3745 35.8877 82.5 36.3924 80.1208 36.3924C77.7896 36.3924 75.7228 35.5753 75.4585 32.7394H87.2103C87.2103 32.427 87.2584 31.1773 87.2584 30.6006ZM75.3864 28.3175C75.3864 25.6018 77.0446 24.4723 78.5587 24.4723C80.0246 24.4723 81.5867 25.6018 81.5867 28.3175H75.3864Z" clip-rule="evenodd" fill-rule="evenodd"></path>
<path fill="#9C9B94" d="M60.1263 19.5938C57.7711 19.5938 56.2571 20.6992 55.4159 21.4683L55.1035 19.9783H49.8164V48L55.8245 46.7263L55.8485 39.9251C56.7137 40.55 57.9874 41.4392 60.1022 41.4392C64.404 41.4392 68.3213 37.9785 68.3213 30.3602C68.2973 23.3909 64.3319 19.5938 60.1263 19.5938ZM58.6843 36.152C57.2664 36.152 56.4253 35.6474 55.8485 35.0225L55.8245 26.1065C56.4493 25.4096 57.3145 24.9289 58.6843 24.9289C60.8713 24.9289 62.3853 27.3802 62.3853 30.5285C62.3853 33.7488 60.8953 36.152 58.6843 36.152Z" clip-rule="evenodd" fill-rule="evenodd"></path>
<path fill="#9C9B94" d="M41.5508 18.1763L47.5829 16.8786V12L41.5508 13.2737V18.1763Z" clip-rule="evenodd" fill-rule="evenodd"></path>
<path fill="#9C9B94" d="M47.5829 20H41.5508V41.0283H47.5829V20Z"></path>
<path fill="#9C9B94" d="M35.0872 21.7788L34.7027 20.0004H29.5117V41.0287H35.5198V26.7775C36.9377 24.927 39.3409 25.2634 40.0859 25.5278V20.0004C39.3169 19.712 36.5051 19.1833 35.0872 21.7788Z" clip-rule="evenodd" fill-rule="evenodd"></path>
<path fill="#9C9B94" d="M23.0657 14.7891L17.2018 16.0387L17.1777 35.2887C17.1777 38.8454 19.8453 41.465 23.4021 41.465C25.3728 41.465 26.8147 41.1045 27.6078 40.6719V35.7933C26.8387 36.1058 23.0416 37.2112 23.0416 33.6545V25.123H27.6078V20.0041H23.0416L23.0657 14.7891Z" clip-rule="evenodd" fill-rule="evenodd"></path>
<path fill="#9C9B94" d="M6.82237 26.1065C6.82237 25.1693 7.59141 24.8088 8.86512 24.8088C10.6916 24.8088 12.9987 25.3615 14.8251 26.3468V20.6992C12.8305 19.9062 10.8598 19.5938 8.86512 19.5938C3.98655 19.5937 0.742188 22.1412 0.742188 26.3949C0.742188 33.0278 9.87448 31.9704 9.87448 34.8303C9.87448 35.9357 8.91318 36.2962 7.56737 36.2962C5.57269 36.2962 3.02526 35.4791 1.00654 34.3736V40.0933C3.24155 41.0546 5.50059 41.4632 7.56737 41.4632C12.5661 41.4632 16.0027 38.9879 16.0027 34.6861C15.9787 27.5244 6.82237 28.7981 6.82237 26.1065Z" clip-rule="evenodd" fill-rule="evenodd"></path>
</svg>
