<svg xmlns="http://www.w3.org/2000/svg" fill="none" viewBox="0 0 134 60" height="60" width="134">
<path fill="#9C9B94" d="M22.9203 26.1464C23.3428 26.6368 23.9061 26.9171 24.5399 26.847C23.9766 26.7069 23.5541 26.2865 23.3428 25.7961C23.2724 26.0063 23.1316 26.1464 22.9203 26.1464ZM22.9907 31.6113C23.5541 31.6813 24.1174 31.261 24.2582 30.7005C24.2582 30.21 23.6245 30.6304 23.4132 30.8406C23.202 31.0508 22.9203 31.1909 22.8499 30.9107C22.7795 30.6304 22.9203 30.5603 22.9203 30.5603C23.202 30.21 23.4132 29.7196 23.4132 29.2291C23.3428 26.0763 20.2446 25.3757 20.2446 25.3757C20.9487 25.8661 21.3712 26.777 21.16 27.6177C21.0191 27.1273 20.7375 26.7069 20.4558 26.2865C20.8079 29.9998 21.7937 31.6113 22.9907 31.6113ZM17.8504 34.0635C19.0475 34.0635 19.8925 32.452 19.8925 32.452C20.5966 32.5221 21.16 31.9616 21.0191 31.6813C21.0191 31.261 20.5966 31.1909 20.0333 31.1909C17.5688 31.1909 17.0055 32.8724 17.0055 33.2928V33.3628C17.0759 33.7832 17.428 34.0635 17.8504 34.0635ZM19.6108 23.9744C19.5404 24.4649 19.8925 24.5349 19.8925 24.5349C20.1741 24.3948 20.315 24.1146 20.315 23.9044C20.315 22.9936 19.9629 22.9936 19.9629 22.9936C19.7517 23.1337 19.6812 23.3439 19.6812 23.5541C19.7517 23.6942 19.6812 23.8343 19.6108 23.9744ZM18.533 24.0396C18.5503 24.2545 18.5698 24.4971 18.8363 24.5349C18.9771 24.605 19.3292 23.9044 19.3292 23.4139C19.3292 22.9235 19.1179 22.6433 18.9771 22.5732C18.7658 22.5031 18.6954 22.4331 18.6954 22.2229C18.6954 22.0127 18.6954 21.9426 18.5546 21.8726C17.9913 21.7324 17.428 22.0828 17.1463 22.5732C17.1463 22.5732 16.2309 24.2547 17.4984 25.0254C17.4984 25.0254 17.7096 25.1655 17.5688 24.7451C17.5295 24.6278 17.4901 24.5322 17.4554 24.4479L17.4554 24.4479C17.3658 24.2301 17.3068 24.0868 17.3575 23.8343C17.428 23.484 17.5688 23.1337 17.8504 22.9235C17.9913 22.8301 17.9756 22.9235 17.9496 23.0792C17.9365 23.157 17.9209 23.2505 17.9209 23.3439C17.9209 23.4214 17.8993 23.5258 17.8755 23.6407C17.8135 23.941 17.7366 24.3129 17.9913 24.4649C18.1093 24.504 18.1614 24.2587 18.209 24.0346C18.2465 23.8578 18.2812 23.6942 18.3434 23.6942C18.5051 23.6942 18.5182 23.8569 18.533 24.0396ZM22.8499 25.1655L20.7375 24.4649C20.667 24.7451 20.7375 25.0254 20.8783 25.2356C21.4415 25.3757 21.9343 25.5158 22.4271 25.6559L22.4274 25.656C23.2724 25.9362 22.8499 25.1655 22.8499 25.1655ZM8.41483 27.0572C8.41483 27.4776 8.97816 27.898 10.4569 27.6177C10.4569 27.6177 10.1048 31.261 13.3439 31.4711C13.8368 31.4711 14.5409 31.331 14.4001 30.6304C14.4001 30.6304 13.9072 30.5603 13.696 30.0699C13.6178 29.8883 13.5782 29.7548 13.5486 29.655C13.4983 29.4853 13.4769 29.4134 13.3439 29.3693C13.2834 29.3492 13.1652 29.3406 13.024 29.3304H13.024C12.6719 29.3049 12.1769 29.269 12.0764 29.019C12.0764 29.019 12.7806 29.019 13.0622 28.6686C13.0622 28.6686 13.0622 28.3183 12.7806 28.3183C12.7268 28.3183 12.6653 28.3209 12.6011 28.3236C12.3287 28.3349 12.006 28.3483 12.006 28.1782C12.006 27.968 12.0764 27.898 12.1468 27.898L13.1326 27.4075L12.2877 26.847C12.2877 26.847 11.9356 26.7069 11.7948 26.7069C11.7373 26.7069 11.7502 26.7651 11.7664 26.8389C11.79 26.946 11.8207 27.0858 11.6539 27.1273C11.5697 27.1552 11.4966 27.1386 11.4035 27.1174C11.2631 27.0854 11.0772 27.043 10.7385 27.1273C10.1752 27.2674 9.82313 27.1273 10.1752 26.847C10.5977 26.5668 11.0202 26.3566 11.5131 26.2865C11.9356 26.2865 12.3581 26.0063 12.4989 25.5859C12.5564 25.443 12.6372 25.3584 12.7033 25.2892C12.7992 25.1889 12.8639 25.1212 12.7806 24.9553C11.8652 24.9553 8.41483 25.8661 8.41483 27.0572ZM11.0202 20.2611C10.6681 21.1019 10.5977 22.0127 10.7385 22.9235C10.7385 22.9235 10.8794 22.9235 10.8794 23.0636C10.8794 23.0636 10.9498 23.0636 10.9498 22.9936C11.2314 21.9426 11.8652 20.9618 12.7102 20.2611V20.1911C12.7102 20.1911 12.7102 20.121 12.6397 20.121C12.006 19.7707 11.3019 19.6306 10.5977 19.7006C6.65446 19.9108 4.68284 23.6241 3.97869 25.4458C3.48578 26.847 4.11952 27.5476 4.47159 27.6878H4.54201C4.54201 27.6878 4.61242 27.6878 4.61242 27.6177C4.63333 27.5241 4.65423 27.3996 4.67905 27.2518C4.82144 26.404 5.09268 24.7889 6.23197 23.8343C7.14736 22.9936 8.76691 22.9235 9.82313 22.9235C9.82313 21.9426 10.2456 20.9618 11.0202 20.2611ZM14.7522 29.9998C14.048 29.4393 13.696 27.8279 13.696 27.8279C13.696 27.8423 13.69 27.8597 13.6812 27.8855C13.647 27.9852 13.5696 28.2109 13.6255 28.8788C13.7664 29.7896 14.1889 30.14 14.4705 30.14C14.7522 30.14 14.7522 29.9998 14.7522 29.9998ZM13.4143 22.9936C13.696 23.484 14.1889 23.8343 14.7522 23.8343C15.3155 23.9044 15.8084 23.6241 16.0197 23.1337C15.1747 23.6942 14.1889 23.6241 13.4143 22.9936ZM25.0328 24.2547C25.5961 24.3248 26.1594 24.6751 26.3707 25.2356C26.3707 25.2525 26.3717 25.2664 26.3735 25.2776C26.3015 25.3056 26.2113 25.3056 26.1594 25.3056L25.1736 24.9553C24.892 24.8853 24.5399 25.0254 24.4695 25.3056C24.399 25.5859 24.5399 25.9362 24.8215 26.0063L25.9482 26.3566C25.9751 26.4101 26.002 26.4432 26.0249 26.4714C26.0621 26.5171 26.089 26.5502 26.089 26.6368C26.089 26.777 26.0186 26.847 25.9482 26.9171C25.4553 27.1273 24.892 27.1973 24.3286 27.0572C24.047 26.9871 23.7653 26.847 23.5541 26.7069C24.399 27.968 25.1032 29.3693 25.7369 30.7705C26.0186 31.4011 25.8073 32.1017 25.244 32.5221C25.244 32.5221 24.7511 32.8023 23.4837 34.5539C22.5477 35.9197 20.4507 36.6254 19.4463 36.9634L19.4461 36.9635L19.4458 36.9636C19.3169 37.007 19.206 37.0443 19.1179 37.0762H19.0475C18.9067 37.1462 18.8363 37.2163 18.8363 37.3564C18.625 38.7577 18.2729 39.3882 18.1321 39.5284C18.1321 39.5284 18.1321 39.5984 18.0617 39.5984H17.8504C16.7942 38.6876 15.5972 37.7768 14.4001 37.0061V36.936C16.0901 33.4329 15.1747 32.7323 14.3297 32.7323C13.9072 32.6622 13.4143 32.7323 12.9918 32.8724C14.048 32.9425 13.9776 33.7132 13.9776 33.7132C13.9072 34.9042 12.4989 35.745 12.3581 35.815C10.9498 35.1845 9.54147 34.694 8.06276 34.4138C8.48525 34.2737 8.83732 33.9233 8.83732 33.4329C8.83732 32.8708 8.57508 32.5323 8.29653 32.1727C8.19319 32.0393 8.08761 31.9031 7.99234 31.7514C7.85151 31.4711 7.85151 31.1909 7.92193 30.9107C7.92193 30.9107 7.92193 30.8406 7.99234 30.8406C7.99234 30.8406 8.06276 30.8406 8.06276 30.9107C8.48525 31.7514 9.33023 32.2418 10.2456 32.1718C10.8794 32.2418 11.5131 32.1017 12.006 31.7514C9.47106 30.9106 9.82313 28.2483 9.82313 28.2483C9.82313 28.2483 7.56985 28.1782 7.56985 26.9871C7.56985 25.801 9.73465 25.0318 10.7262 24.6795L10.7385 24.6751C10.316 24.4649 9.96397 24.0445 9.89355 23.5541C9.84351 23.5541 9.78068 23.553 9.70711 23.5518H9.70708H9.70706C8.74531 23.5355 5.95031 23.4883 5.95031 25.3757C5.95031 26.4967 6.51363 27.5476 7.35861 28.2483C7.37748 28.2858 7.39634 28.3183 7.41386 28.3485C7.4617 28.431 7.49944 28.496 7.49944 28.5986C7.57945 28.718 7.61401 28.9731 7.65476 29.274C7.68573 29.5027 7.72028 29.7578 7.7811 29.9998V30.14H7.71068L7.71068 30.1399C7.56985 29.9998 7.42902 29.8597 7.35861 29.6495C6.93612 28.6686 6.44321 27.898 5.95031 27.898H5.87989C5.66865 27.898 5.4574 28.1081 5.4574 28.3884C5.4574 29.1039 6.3072 29.9403 6.76694 30.3927C6.80237 30.4276 6.83548 30.4602 6.8657 30.4903C6.93612 30.6304 7.00653 30.7705 7.00653 30.9807V32.8724C7.00653 33.503 6.8657 34.0635 6.16155 34.0635C5.31657 34.0635 4.54201 33.503 4.26035 32.6622C4.18993 32.6622 4.26035 32.5921 4.26035 32.5921H4.33076C4.54201 32.8023 4.89408 32.9425 5.17574 33.0125C5.52782 33.0125 5.95031 33.0125 5.87989 31.331C5.76761 30.1765 5.15792 29.7149 4.42098 29.1569C3.77155 28.6652 3.02329 28.0986 2.42956 26.9171V26.777C2.58489 26.4497 2.7426 26.0763 2.91237 25.6745C4.0509 22.9794 5.73204 19 10.8794 19C11.9356 19 12.9918 19.2803 13.8368 19.8408C13.8368 19.8408 13.9072 19.8408 13.9072 19.9108V19.9809C13.8681 20.0198 13.8159 20.0691 13.7541 20.1275C13.2596 20.595 12.1468 21.6468 12.1468 22.6433C12.2172 23.3439 12.5693 24.0445 13.1326 24.4649V24.8853C13.3439 24.9553 13.4847 25.0955 13.5551 25.3056C13.6224 25.5733 13.5612 25.6492 13.3102 25.9607L13.2735 26.0063C13.1326 26.1464 13.1326 26.3566 13.2031 26.5668C13.5551 26.6368 13.8368 26.9871 13.9072 27.3375C14.273 29.3133 15.0654 29.8614 15.4498 30.1272C15.5833 30.2196 15.6676 30.2779 15.6676 30.3501C15.6676 30.6304 14.6818 30.9807 14.6818 30.9807C14.6818 31.1909 14.5409 31.4011 14.3297 31.4711C13.9776 31.6113 13.5551 31.8215 13.2735 32.1718C14.2593 31.9616 15.2451 32.0316 16.1605 32.2418C17.1463 31.1208 18.4842 30.4903 19.9629 30.4202C20.8079 26.4967 19.0475 25.1655 19.0475 25.1655C18.4138 25.5859 17.8504 25.9362 17.1463 25.5158C16.6534 25.0954 16.3013 24.535 16.2309 23.9044L15.9492 23.8343C15.4563 24.1846 14.893 24.2547 14.3297 24.1146C13.696 23.9744 13.2031 23.484 12.9918 22.9235V22.7133C13.0622 22.5732 13.2735 22.4331 13.4143 22.5031C13.9072 22.7133 14.6114 22.8534 14.6114 22.8534C14.6818 22.9235 14.6818 22.9235 14.7522 22.9235C14.9634 22.9936 15.1043 22.8534 15.1747 22.6433C15.2451 22.5732 15.2451 22.5732 15.2451 22.5031C15.3155 22.2929 15.1747 22.1528 14.9634 22.0828L13.9072 21.6624C13.8368 21.6624 13.7664 21.5923 13.7664 21.5223C13.696 21.3821 13.7664 21.242 13.9072 21.1719C14.3297 21.0318 14.6818 21.0318 15.1043 21.1019C15.738 21.1719 16.2309 21.5923 16.4421 22.1528L16.7942 22.2229C16.7942 22.1528 16.7942 22.1528 16.8646 22.0828C17.78 20.8216 20.2446 22.0828 21.16 22.5732C21.3712 22.6433 21.512 22.8534 21.5824 23.0636C21.6529 23.2038 21.7233 23.3614 21.7937 23.5191C21.8641 23.6767 21.9345 23.8343 22.0049 23.9744L23.3428 24.4649C23.8357 24.1846 24.4695 24.0445 25.0328 24.2547ZM26.4411 25.2356C26.4226 25.254 26.3992 25.2676 26.3735 25.2776C26.3867 25.3587 26.4411 25.2972 26.4411 25.2356ZM39.7489 27.6865C39.1152 27.126 38.3406 26.8457 37.5661 26.8457C37.0028 26.8457 36.2282 27.196 36.2282 27.8266C36.2282 28.4572 37.0732 28.8075 37.6365 29.0177L38.4815 29.2979C40.2419 29.7884 41.5797 30.6291 41.5797 32.6609C41.6502 33.9221 41.2277 35.1131 40.3123 36.0239C39.3265 36.7946 38.059 37.215 36.7915 37.215C35.2424 37.215 33.6933 36.7246 32.4258 35.8137L33.7637 33.2214C34.5382 33.922 35.524 34.4125 36.6507 34.4826C37.4253 34.4826 38.2702 34.0622 38.2702 33.2214C38.2702 32.3807 37.0028 31.9603 36.369 31.8202C34.327 31.2597 32.9891 30.6992 32.9891 28.317C32.8483 26.075 34.6086 24.2534 36.7915 24.1133H37.2844C38.6223 24.1133 39.9602 24.4636 41.1572 25.0942L39.7489 27.6865ZM48.6931 31.4709C48.5523 30.7002 47.8481 30.1397 47.0032 30.1397C46.1582 30.0697 45.454 30.7002 45.2428 31.4709H48.6931ZM51.4393 33.1524H45.1724C45.0315 34.0632 45.6653 34.904 46.6511 35.0441H47.0736C47.6369 35.1142 48.2002 34.8339 48.4819 34.2734H51.2985C50.8056 36.3753 48.9748 37.2161 47.0032 37.2161C44.257 37.2161 42.1445 35.6046 42.1445 32.7321C42.1445 29.8595 44.0457 28.248 46.8623 28.248C49.8198 28.248 51.5097 30.0697 51.5097 32.9422L51.4393 33.1524ZM57.9165 28.599C56.7899 28.529 55.6632 29.1595 55.1703 30.2105V28.7392H52.2129V37.1467H55.1703V33.7136C55.1703 32.3124 55.5928 31.1914 57.2828 31.1914C57.7053 31.1914 58.1278 31.2614 58.5502 31.4716V29.4726L62.4946 37.0054H64.3958L68.832 28.668H65.4521L63.41 32.9418L61.5088 28.668H58.5502V28.599H57.9165ZM69.0412 37.0749H72.1395V28.5973H69.0412V37.0749ZM70.5904 27.4763C71.5057 27.4763 72.2803 26.7056 72.2803 25.7948C72.2803 24.884 71.5057 24.1133 70.5904 24.1133C69.675 24.1133 68.9004 24.884 68.9004 25.7948C68.9004 26.7056 69.675 27.4763 70.5904 27.4763ZM79.7444 31.1904C79.2515 30.8401 78.7586 30.6299 78.1249 30.6299C76.9278 30.6299 76.0124 31.5407 76.0124 32.7318C75.942 33.8528 76.8574 34.7636 77.9841 34.8337H78.1249C78.6882 34.7636 79.1811 34.5534 79.6036 34.2031V36.7254C78.9699 37.0056 78.1953 37.2158 77.4911 37.2158C75.0266 37.2859 72.9846 35.3942 72.8438 32.942V32.8019C72.8438 30.2796 74.8858 28.2478 77.4207 28.1777H77.632C78.3361 28.1777 79.0403 28.3179 79.674 28.6682L79.7444 31.1904ZM85.3782 30.1399C86.2232 30.1399 86.9274 30.7004 87.0682 31.4711H83.6179C83.8291 30.6303 84.5333 30.0698 85.3782 30.1399ZM83.5474 33.1526H89.8144L89.9552 32.9424C89.9552 30.0698 88.2653 28.2482 85.3078 28.2482C82.4912 28.2482 80.59 29.8596 80.59 32.7322C80.59 35.6047 82.7025 37.2162 85.4486 37.2162C87.4203 37.2162 89.2511 36.3754 89.744 34.2736H86.8569C86.5753 34.8341 86.012 35.1143 85.4486 35.0442H85.0262C84.0404 34.9041 83.4066 34.0634 83.5474 33.1526ZM95.7995 37.0774H92.7013V27.4788H89.9551V24.8164H98.5457V27.4788H95.8699V37.0774H95.7995ZM99.18 37.0749H102.208V28.5973H99.18V37.0749ZM100.659 27.4763C101.574 27.4763 102.349 26.7056 102.349 25.7948C102.349 24.884 101.574 24.1133 100.659 24.1133C99.7433 24.1133 98.9688 24.884 98.9688 25.7948C98.9688 26.7056 99.7433 27.4763 100.659 27.4763ZM107.066 37.076H104.038V31.1207H103.123V28.6685H104.038V26.0762H107.066V28.6685H108.756V31.1207H107.066V37.076ZM113.616 34.7646C112.56 34.7646 111.715 33.9239 111.715 32.8729V32.8029C111.715 31.822 112.56 30.9812 113.616 30.9812H113.757C114.813 30.9812 115.588 31.892 115.517 32.8729C115.517 33.9239 114.672 34.7646 113.616 34.7646ZM115.517 37.0767H118.545V28.5991H115.517V29.58C114.813 28.8093 113.898 28.459 112.912 28.459C110.588 28.5991 108.757 30.4207 108.687 32.7328C108.546 35.185 110.447 37.2869 112.982 37.427C113.968 37.427 114.954 37.0066 115.517 36.1659V37.0767ZM122.487 29.789C123.121 28.8781 124.177 28.3877 125.233 28.4578C127.486 28.4578 128.402 29.859 128.402 31.9609V37.1455H125.374V33.0819C125.374 33.0456 125.374 33.0083 125.375 32.9702C125.375 32.9415 125.375 32.9124 125.376 32.8829V32.8822V32.8815V32.8807V32.8799V32.8791V32.8783C125.386 32.0427 125.4 30.91 124.036 30.91C122.768 30.91 122.416 31.8208 122.416 32.8017V37.1455H119.459V28.738H122.487V29.789ZM129.953 28.5273V28.247H130.375C130.586 28.247 130.727 28.247 130.727 28.3871C130.727 28.5272 130.375 28.5273 130.234 28.5273H129.953ZM130.586 29.4381H130.868L130.375 28.7374H130.446C130.657 28.7374 130.798 28.5272 130.798 28.3171C130.798 27.9667 130.586 27.8967 130.305 27.8967H129.741V29.4381H129.882V28.7374H130.234L130.586 29.4381ZM130.305 29.7884C129.671 29.7884 129.178 29.368 129.178 28.7374V28.5973C129.248 28.0368 129.741 27.6164 130.305 27.6164C130.938 27.6164 131.431 28.0368 131.431 28.6674C131.431 29.2979 130.938 29.7884 130.305 29.7884ZM130.305 27.4062C129.601 27.4062 128.967 27.9667 128.967 28.7374C128.967 29.4381 129.601 29.9986 130.305 30.0686C131.009 30.0686 131.643 29.5081 131.643 28.7374C131.643 28.0368 131.009 27.4062 130.305 27.4062ZM4.47216 39.0391C4.47216 39.0391 5.73963 39.5295 5.73963 40.0199C5.66922 40.2301 5.45797 40.4403 5.24673 40.4403C4.75382 40.3002 4.33133 39.9499 4.26092 39.4594C4.1905 39.3193 4.33133 39.1091 4.47216 39.0391ZM3.06353 32.7326L3.13394 32.8027C3.42414 34.3427 5.22044 34.8836 7.4748 35.5625C10.1434 36.3662 13.4539 37.3632 15.6678 40.4395V40.7198C15.6678 40.7898 15.5974 40.8599 15.527 40.8599C14.8228 40.9299 14.0483 41 13.3441 41C12.7808 41 12.2175 40.7197 11.8654 40.2994C10.1159 38.1959 7.63054 37.1062 5.6399 36.2334C3.78483 35.42 2.35938 34.795 2.35938 33.7135C2.35938 33.2931 2.64104 32.8727 3.06353 32.7326ZM11.9351 25.7266C11.5126 25.3062 10.4564 25.6566 9.82265 26.147C9.18892 26.6374 9.47058 26.9877 9.47058 26.9877C9.89307 26.4272 10.5268 26.0069 11.231 25.8667C11.5126 25.8667 11.7239 25.7967 11.9351 25.7266ZM11.5143 28.3887C11.5143 28.3887 11.0918 28.4587 11.1622 29.1594C11.1622 29.5097 11.4439 29.7199 11.7255 29.7199C11.5143 29.2995 11.4439 28.809 11.5143 28.3887ZM5.67559 37.3634C5.10401 37.1102 4.58072 36.8783 4.1901 36.6562C3.62678 36.3059 3.55637 36.7963 3.6972 36.6562C3.6972 37.2219 4.39991 37.6944 5.18387 38.2216C5.75917 38.6084 6.37822 39.0247 6.79546 39.5288C7.42919 40.3695 7.71085 40.6498 8.69666 40.6498C10.0346 40.6498 9.75289 40.2294 9.75289 40.2294C9.23475 38.9405 7.26779 38.069 5.67559 37.3634Z" clip-rule="evenodd" fill-rule="evenodd"></path>
</svg>
