<svg xmlns="http://www.w3.org/2000/svg" fill="none" viewBox="0 0 84 60" height="60" width="84">
<path fill="#9C9B94" d="M73.267 18.6752C68.2878 18.6752 64.236 22.9214 64.236 28.1414C64.236 33.3614 68.2878 37.6076 73.267 37.6076C78.245 37.6076 82.2957 33.3614 82.2957 28.1414C82.2957 22.9214 78.245 18.6752 73.267 18.6752ZM73.267 33.1213C70.6483 33.1213 68.5155 30.8848 68.5155 28.1414C68.5155 25.3967 70.6483 23.1615 73.267 23.1615C75.8833 23.1615 78.0173 25.3967 78.0173 28.1414C78.0173 30.886 75.8845 33.1213 73.2658 33.1213H73.267ZM46.6738 26.2243L45.0946 25.3979C44.409 25.042 43.9792 24.7666 43.8063 24.5631C43.6415 24.3827 43.5477 24.1443 43.5435 23.8952C43.5435 23.5759 43.6813 23.3065 43.9523 23.0969C44.221 22.8775 44.6029 22.7776 45.0876 22.7776C45.9741 22.7776 46.9564 23.3358 48.038 24.4607L50.7034 21.6661C50.0485 20.7355 49.192 19.9796 48.2039 19.4601C47.2287 18.9481 46.1512 18.6842 45.0596 18.6898C43.4326 18.6898 42.0894 19.1907 41.0428 20.1999C39.9974 21.209 39.4718 22.4217 39.4718 23.844C39.4718 26.05 40.8559 27.8879 43.6335 29.3467L45.0876 30.1085C46.3409 30.7703 46.9646 31.4442 46.9646 32.1414C46.9646 32.5192 46.7906 32.8458 46.4449 33.1359C46.0991 33.4272 45.6413 33.5649 45.0736 33.5649C44.548 33.5649 43.9453 33.376 43.2667 32.9921C42.5905 32.6143 41.9889 32.1065 41.4937 31.4954L38.8423 34.5229C40.3373 36.5704 42.3311 37.6015 44.8377 37.6015C46.7217 37.6015 48.2249 37.064 49.3392 35.9963C50.4605 34.9299 51.0211 33.5942 51.0211 31.9963C51.0211 30.7983 50.7104 29.7465 50.0937 28.8531C49.4712 27.9598 48.3289 27.0896 46.6738 26.2255V26.2243ZM19.861 35.5454V19.0518H15.5744V20.156C14.13 19.1873 12.4488 18.6732 10.7318 18.6752C5.75378 18.6752 1.70312 22.9214 1.70312 28.1414C1.70312 33.3614 5.75378 37.6076 10.733 37.6076C12.4294 37.6102 14.0915 37.1093 15.5253 36.1633C15.5253 36.3083 15.5183 36.4388 15.5183 36.5265C15.5183 39.27 13.3855 41.5064 10.768 41.5064C9.87803 41.5043 9.00672 41.2398 8.25448 40.7435L6.13455 44.635C7.53244 45.5247 9.13762 45.9969 10.775 46C15.7543 46 19.861 41.7526 19.861 36.5326C19.861 36.3303 19.8738 35.7343 19.861 35.5454ZM10.733 33.1201C8.11666 33.1201 5.98271 30.8848 5.98271 28.1414C5.98271 25.3967 8.11549 23.1615 10.733 23.1615C13.3505 23.1615 15.4833 25.3967 15.4833 28.1414C15.4833 30.8848 13.3505 33.1213 10.733 33.1213V33.1201ZM36.9361 19.0457H32.6285V28.0451C32.6355 29.3236 32.6355 31.5308 31.7361 32.4741C31.3063 32.9238 30.8356 33.3309 29.8451 33.3309C28.8476 33.3309 28.3769 32.9238 27.9483 32.4741C27.0477 31.5296 27.0547 29.3163 27.0606 28.0451V19.0457H22.7541V28.0183C22.7401 29.8684 22.7191 33.3029 24.8799 35.582C26.1472 36.9177 27.6574 37.6002 29.8381 37.6002C32.02 37.6002 33.529 36.925 34.7963 35.582C36.9571 33.3029 36.9361 29.8611 36.9221 28.0183L36.9361 19.0445V19.0457ZM61.3463 32.3157C61.0006 32.5911 60.1619 33.2017 59.2135 33.064C58.438 32.9543 57.8084 32.3595 57.7115 30.3705V22.908H62.7736V19.0311H57.7115V14H53.4179V14.9872H53.4109V29.7831C53.4109 32.1353 53.9785 37.6002 59.2065 37.6002C61.8521 37.5576 63.4581 36.0548 64.1308 35.4674L64.2208 35.3943L61.6441 32.0695C61.6371 32.0756 61.4573 32.2279 61.3463 32.3157H61.3463Z"></path>
</svg>
